<?xml version="1.0" encoding="UTF-8"?>
<svg id="a" data-name="CM Elements" xmlns="http://www.w3.org/2000/svg" width="589.94" height="121.03" viewBox="0 0 589.94 121.03">
  <defs>
    <style>
      .b, .c {
        fill: #7cc242;
      }

      .c {
        fill-rule: evenodd;
      }

      .d {
        fill: #231f20;
      }
    </style>
  </defs>
  <g>
    <path class="b" d="M349.53,51.67v5.7h-27.47V20.74h26.74v5.7h-19.94v9.52h17.69v5.6h-17.69v10.1h20.67Z"/>
    <path class="b" d="M354.5,20.74h6.8v30.88h19.15v5.76h-25.96V20.74Z"/>
    <path class="b" d="M410.71,51.67v5.7h-27.47V20.74h26.74v5.7h-19.94v9.52h17.69v5.6h-17.69v10.1h20.67Z"/>
    <path class="b" d="M449.33,57.37l-.05-24.28-12.04,20.09h-3.04l-12.04-19.78v23.97h-6.49V20.74h5.6l14.55,24.28,14.29-24.28h5.6l.05,36.63h-6.44Z"/>
    <path class="b" d="M490.51,51.67v5.7h-27.47V20.74h26.74v5.7h-19.94v9.52h17.69v5.6h-17.69v10.1h20.67Z"/>
    <path class="b" d="M528.03,20.74V57.37h-5.6l-20.2-24.8v24.8h-6.75V20.74h5.6l20.2,24.8V20.74h6.75Z"/>
    <path class="b" d="M542.68,26.5h-12.14v-5.76h31.08v5.76h-12.14v30.88h-6.8V26.5Z"/>
    <path class="b" d="M566.94,56.69c-2.63-.8-4.72-1.87-6.25-3.19l2.35-5.29c1.5,1.19,3.34,2.16,5.52,2.9,2.18,.75,4.37,1.13,6.57,1.13,2.72,0,4.75-.44,6.1-1.31,1.34-.87,2.01-2.02,2.01-3.45,0-1.05-.37-1.91-1.12-2.59-.75-.68-1.7-1.21-2.85-1.6-1.15-.38-2.72-.82-4.71-1.31-2.79-.66-5.05-1.33-6.78-1.99-1.73-.66-3.21-1.7-4.45-3.11-1.24-1.41-1.86-3.32-1.86-5.73,0-2.02,.55-3.86,1.65-5.52,1.1-1.66,2.76-2.97,4.97-3.95,2.21-.98,4.93-1.46,8.14-1.46,2.23,0,4.43,.28,6.59,.84,2.16,.56,4.03,1.36,5.6,2.41l-2.15,5.29c-1.6-.94-3.28-1.66-5.02-2.15-1.75-.49-3.44-.73-5.08-.73-2.69,0-4.68,.45-5.99,1.36-1.31,.91-1.96,2.11-1.96,3.61,0,1.05,.37,1.9,1.12,2.56,.75,.66,1.7,1.19,2.85,1.57,1.15,.38,2.72,.82,4.71,1.31,2.72,.63,4.95,1.28,6.7,1.96,1.74,.68,3.24,1.72,4.47,3.11,1.24,1.4,1.86,3.28,1.86,5.65,0,2.02-.55,3.86-1.65,5.49-1.1,1.64-2.76,2.95-5,3.92-2.23,.98-4.95,1.47-8.16,1.47-2.83,0-5.56-.4-8.19-1.2Z"/>
  </g>
  <g>
    <path class="d" d="M329.26,97.54c-1.95-1.08-3.49-2.57-4.6-4.47-1.11-1.91-1.67-4.04-1.67-6.4s.56-4.5,1.67-6.4c1.11-1.91,2.65-3.4,4.61-4.47,1.96-1.08,4.16-1.61,6.6-1.61,1.82,0,3.51,.3,5.05,.91,1.54,.61,2.85,1.5,3.93,2.67l-1.65,1.65c-1.92-1.94-4.34-2.91-7.26-2.91-1.94,0-3.71,.44-5.3,1.33-1.59,.89-2.84,2.11-3.74,3.65s-1.35,3.28-1.35,5.19,.45,3.65,1.35,5.19c.9,1.54,2.15,2.76,3.74,3.65,1.59,.89,3.36,1.33,5.3,1.33,2.95,0,5.37-.98,7.26-2.95l1.65,1.65c-1.08,1.17-2.39,2.06-3.95,2.68-1.56,.62-3.25,.93-5.07,.93-2.43,0-4.63-.54-6.58-1.61Z"/>
    <path class="d" d="M349.87,72.91h2.49v26.04h-2.49v-26.04Z"/>
    <path class="d" d="M362.04,97.91c-1.43-.81-2.55-1.92-3.37-3.35-.82-1.43-1.23-3.04-1.23-4.84s.41-3.42,1.23-4.84c.82-1.43,1.94-2.54,3.37-3.33,1.43-.79,3.03-1.19,4.81-1.19s3.38,.4,4.81,1.19c1.43,.79,2.54,1.91,3.35,3.33,.81,1.43,1.21,3.04,1.21,4.84s-.4,3.41-1.21,4.84c-.81,1.43-1.92,2.54-3.35,3.35-1.43,.81-3.03,1.21-4.81,1.21s-3.38-.4-4.81-1.21Zm8.33-1.89c1.04-.6,1.85-1.44,2.44-2.54,.58-1.1,.88-2.35,.88-3.75s-.29-2.66-.88-3.75c-.58-1.1-1.4-1.95-2.44-2.54-1.04-.6-2.22-.89-3.53-.89s-2.49,.3-3.53,.89c-1.04,.6-1.86,1.44-2.46,2.54-.6,1.1-.89,2.35-.89,3.75s.3,2.65,.89,3.75c.6,1.1,1.41,1.95,2.46,2.54,1.04,.6,2.22,.89,3.53,.89s2.49-.3,3.53-.89Z"/>
    <path class="d" d="M397.94,80.49v18.46h-2.39v-3.37c-.65,1.12-1.56,1.99-2.7,2.61-1.15,.62-2.46,.93-3.93,.93-2.41,0-4.31-.67-5.7-2.02-1.39-1.34-2.09-3.32-2.09-5.91v-10.7h2.49v10.46c0,1.94,.48,3.42,1.44,4.42,.96,1.01,2.33,1.51,4.1,1.51,1.94,0,3.47-.59,4.6-1.77,1.12-1.18,1.68-2.83,1.68-4.93v-9.68h2.49Z"/>
    <path class="d" d="M421.76,72.91v26.04h-2.39v-3.65c-.75,1.24-1.74,2.19-2.96,2.84-1.23,.65-2.61,.98-4.16,.98-1.73,0-3.3-.4-4.7-1.19-1.4-.8-2.5-1.91-3.3-3.33-.79-1.43-1.19-3.05-1.19-4.88s.4-3.45,1.19-4.88c.79-1.43,1.9-2.53,3.3-3.32,1.4-.78,2.97-1.18,4.7-1.18,1.5,0,2.85,.31,4.05,.93,1.21,.62,2.19,1.53,2.96,2.72v-11.09h2.49Zm-5.81,23.11c1.04-.6,1.86-1.44,2.46-2.54,.6-1.1,.89-2.35,.89-3.75s-.3-2.66-.89-3.75c-.6-1.1-1.42-1.95-2.46-2.54-1.04-.6-2.21-.89-3.49-.89s-2.49,.3-3.53,.89c-1.04,.6-1.86,1.44-2.46,2.54-.6,1.1-.89,2.35-.89,3.75s.3,2.65,.89,3.75c.6,1.1,1.41,1.95,2.46,2.54,1.04,.6,2.22,.89,3.53,.89s2.45-.3,3.49-.89Z"/>
    <path class="d" d="M445.8,76.63c1.78,1.5,2.67,3.56,2.67,6.17s-.89,4.67-2.67,6.16c-1.78,1.49-4.23,2.23-7.37,2.23h-6.6v7.75h-2.6v-24.56h9.19c3.13,0,5.59,.75,7.37,2.25Zm-1.86,10.68c1.29-1.06,1.93-2.57,1.93-4.51s-.64-3.51-1.93-4.58c-1.29-1.06-3.15-1.6-5.58-1.6h-6.53v12.28h6.53c2.43,0,4.29-.53,5.58-1.6Z"/>
    <path class="d" d="M470.53,80.49v18.46h-2.39v-3.37c-.65,1.12-1.56,1.99-2.7,2.61-1.15,.62-2.46,.93-3.93,.93-2.41,0-4.31-.67-5.7-2.02-1.39-1.34-2.09-3.32-2.09-5.91v-10.7h2.49v10.46c0,1.94,.48,3.42,1.44,4.42,.96,1.01,2.33,1.51,4.1,1.51,1.94,0,3.47-.59,4.6-1.77,1.12-1.18,1.68-2.83,1.68-4.93v-9.68h2.49Z"/>
    <path class="d" d="M482.52,81.3c1.16-.63,2.59-.95,4.3-.95v2.42l-.6-.03c-1.94,0-3.46,.6-4.56,1.79-1.1,1.19-1.65,2.87-1.65,5.02v9.4h-2.49v-18.46h2.39v3.61c.58-1.24,1.46-2.18,2.61-2.81Z"/>
    <path class="d" d="M493.88,97.93c-1.44-.8-2.57-1.91-3.39-3.35-.82-1.44-1.23-3.06-1.23-4.86s.41-3.42,1.23-4.84c.82-1.43,1.95-2.54,3.39-3.33,1.44-.79,3.07-1.19,4.89-1.19,1.59,0,3.01,.31,4.26,.93,1.25,.62,2.24,1.53,2.96,2.72l-1.86,1.26c-.61-.91-1.38-1.6-2.32-2.05-.94-.46-1.95-.68-3.05-.68-1.33,0-2.53,.3-3.6,.89-1.06,.6-1.89,1.44-2.49,2.54-.6,1.1-.89,2.35-.89,3.75s.3,2.68,.89,3.77c.6,1.09,1.43,1.93,2.49,2.53,1.06,.6,2.26,.89,3.6,.89,1.1,0,2.12-.22,3.05-.67,.93-.44,1.71-1.12,2.32-2.04l1.86,1.26c-.73,1.19-1.72,2.1-2.98,2.72-1.26,.62-2.68,.93-4.25,.93-1.83,0-3.46-.4-4.89-1.19Z"/>
    <path class="d" d="M525.53,82.37c1.37,1.35,2.05,3.3,2.05,5.88v10.7h-2.49v-10.46c0-1.92-.48-3.38-1.44-4.39-.96-1.01-2.33-1.51-4.11-1.51-1.99,0-3.56,.59-4.72,1.77-1.16,1.18-1.74,2.81-1.74,4.89v9.68h-2.49v-26.04h2.49v10.81c.68-1.08,1.61-1.91,2.81-2.49,1.19-.58,2.56-.88,4.11-.88,2.32,0,4.16,.67,5.53,2.02Z"/>
    <path class="d" d="M546.36,82.16c1.29,1.21,1.93,2.99,1.93,5.35v11.44h-2.39v-2.88c-.56,.96-1.39,1.71-2.47,2.25-1.09,.54-2.38,.81-3.88,.81-2.06,0-3.7-.49-4.91-1.47-1.22-.98-1.82-2.28-1.82-3.9s.57-2.83,1.7-3.79c1.13-.96,2.94-1.44,5.42-1.44h5.86v-1.12c0-1.59-.44-2.8-1.33-3.63-.89-.83-2.19-1.25-3.89-1.25-1.17,0-2.29,.19-3.37,.58-1.08,.39-2,.92-2.77,1.6l-1.12-1.86c.94-.8,2.06-1.41,3.37-1.84,1.31-.43,2.69-.65,4.14-.65,2.41,0,4.26,.6,5.54,1.81Zm-2.81,14.04c1-.64,1.75-1.57,2.25-2.79v-3.02h-5.79c-3.16,0-4.74,1.1-4.74,3.3,0,1.08,.41,1.92,1.23,2.54,.82,.62,1.96,.93,3.44,.93s2.61-.32,3.61-.96Z"/>
    <path class="d" d="M555.71,98.47c-1.37-.43-2.44-.98-3.21-1.63l1.12-1.96c.77,.61,1.74,1.11,2.91,1.49,1.17,.39,2.39,.58,3.65,.58,1.68,0,2.93-.26,3.74-.79,.81-.53,1.21-1.27,1.21-2.23,0-.68-.22-1.21-.67-1.6-.44-.39-1.01-.68-1.68-.88-.68-.2-1.58-.39-2.7-.58-1.5-.28-2.7-.57-3.61-.86-.91-.29-1.69-.79-2.33-1.49-.64-.7-.96-1.67-.96-2.91,0-1.54,.64-2.81,1.93-3.79,1.29-.98,3.08-1.47,5.37-1.47,1.19,0,2.39,.16,3.58,.47,1.19,.32,2.18,.73,2.95,1.25l-1.09,2c-1.52-1.05-3.33-1.58-5.44-1.58-1.59,0-2.79,.28-3.6,.84-.81,.56-1.21,1.3-1.21,2.21,0,.7,.23,1.26,.68,1.68,.46,.42,1.02,.73,1.7,.93,.68,.2,1.61,.4,2.81,.61,1.47,.28,2.66,.56,3.54,.84,.89,.28,1.65,.76,2.28,1.44,.63,.68,.95,1.61,.95,2.81,0,1.61-.67,2.89-2.02,3.84-1.35,.95-3.21,1.42-5.6,1.42-1.5,0-2.93-.22-4.3-.65Z"/>
    <path class="d" d="M588.29,90.49h-15.44c.14,1.92,.88,3.47,2.21,4.65,1.33,1.18,3.02,1.77,5.05,1.77,1.15,0,2.2-.2,3.16-.61,.96-.41,1.79-1.01,2.49-1.81l1.4,1.61c-.82,.98-1.84,1.73-3.07,2.25-1.23,.51-2.58,.77-4.05,.77-1.89,0-3.57-.4-5.04-1.21-1.46-.81-2.6-1.92-3.42-3.35-.82-1.43-1.23-3.04-1.23-4.84s.39-3.42,1.17-4.84c.78-1.43,1.86-2.54,3.23-3.33s2.91-1.19,4.61-1.19,3.24,.4,4.6,1.19c1.36,.79,2.42,1.9,3.19,3.32,.77,1.42,1.16,3.04,1.16,4.86l-.04,.77Zm-13.39-6.3c-1.2,1.13-1.89,2.61-2.05,4.44h13.09c-.16-1.83-.85-3.3-2.05-4.44-1.21-1.13-2.71-1.7-4.51-1.7s-3.27,.57-4.47,1.7Z"/>
  </g>
  <g>
    <path class="d" d="M136.07,2.54v29.83c0,.7-.28,1.33-.74,1.79-.46,.46-1.09,.74-1.79,.74H52.61c-2.56,0-4.64,.31-6.3,.89-1.61,.56-2.82,1.39-3.72,2.44-.91,1.07-1.54,2.44-1.95,4.06-.42,1.67-.59,3.6-.59,5.75v24.02c0,2.16,.18,4.09,.59,5.75,.41,1.62,1.04,2.99,1.95,4.06,.89,1.05,2.11,1.87,3.72,2.44,1.66,.58,3.74,.89,6.3,.89h89.23V2.54h0c0-.7,.28-1.33,.74-1.79,.46-.46,1.09-.74,1.79-.74l103.63,.03h1.72c5.36,.09,10.11,.97,14.24,2.48,4.72,1.72,8.63,4.25,11.74,7.33,2.96,2.92,5.18,6.34,6.68,10.01,1.45,3.56,2.22,7.37,2.32,11.23h.02v.85h0V118.5c0,.7-.28,1.33-.74,1.79-.46,.46-1.09,.74-1.79,.74h-34.74s-.41,0-.85-.16c-.43-.15-.68-.33-.94-.59h0c-.46-.46-.74-1.09-.74-1.79h0l-.23-76.36h0c-.05-3.66-1.11-5.43-2.8-6.25-1.8-.88-4.4-.81-7.25-.74h-.32V118.5c0,.7-.28,1.33-.74,1.79-.46,.46-1.09,.74-1.79,.74h-35.48s-.53-.03-.85-.14c-.31-.11-.67-.35-.94-.61h0c-.46-.46-.74-1.09-.74-1.79,0-6.38,0-11.14,0-28.63v-2.07h0v-.31h0c0-21.41,0-42.4,0-46.05-.01-2.91-.81-4.5-2.1-5.34-1.35-.88-3.3-1.04-5.46-1.03-.77,0-1.64,.03-2.52,.05h-.02l-.5,.02V118.5s.06,.53-.12,.94c-.18,.41-.36,.58-.62,.85h0c-.46,.46-1.09,.74-1.79,.74H47.1c-1.25,0-3.62,0-5.82,0-2.39,0-4.58,0-4.94-.02-4.98-.16-9.67-1.31-13.93-3.25-4.46-2.04-8.44-4.94-11.76-8.47-3.36-3.57-6.05-7.8-7.89-12.43-1.79-4.5-2.76-9.39-2.76-14.43V37.59H.02c.11-4.83,1.11-9.5,2.86-13.8,1.91-4.69,4.7-8.95,8.18-12.52,3.44-3.53,7.55-6.4,12.14-8.35C27.34,1.15,31.87,.13,36.66,.02v-.02h96.87c.7,0,1.33,.28,1.79,.74h0c.46,.46,.74,1.09,.74,1.79h0Z"/>
    <path class="c" d="M54.19,40.45h17.49v39.5h-15.66c-5.32,0-9.68-2.45-9.68-7.69v-22.3c0-5.23,2.53-9.51,7.85-9.51h0Zm55.22,0h24.81v39.5h-24.81V40.45h0Zm-31.48,0h25.23v39.5h-25.23V40.45Z"/>
  </g>
  <rect class="d" x="302.14" y="9.04" width="2.48" height="102.96"/>
</svg>