<?xml version="1.0" encoding="UTF-8"?>
<svg id="a" data-name="Layer 1" xmlns="http://www.w3.org/2000/svg" width="227.6" height="190.63" viewBox="0 0 227.6 190.63">
  <defs>
    <style>
      .b {
        fill: #7cc242;
      }
    </style>
  </defs>
  <polygon points="227.6 190.61 227.6 190.61 227.6 190.61 227.6 190.61"/>
  <g>
    <rect class="b" x="172.31" y="63.54" width="39.07" height="62.2"/>
    <path class="b" d="M72.97,78.52v35.12c0,8.24,6.86,12.1,15.25,12.1h24.67V63.54h-27.54c-8.39,0-12.37,6.74-12.37,14.98Z"/>
    <rect class="b" x="122.73" y="63.54" width="39.73" height="62.2"/>
  </g>
  <path d="M63.07,75.68c0-3.39,.28-6.44,.93-9.06,.64-2.55,1.63-4.71,3.07-6.4,1.41-1.65,3.32-2.95,5.85-3.84,2.61-.92,5.89-1.4,9.93-1.4h127.45c1.1,0,2.1-.45,2.82-1.17s1.17-1.72,1.17-2.82V4c0-1.1-.45-2.1-1.17-2.82h0c-.72-.72-1.72-1.17-2.82-1.17H57.74c-7.54,.17-14.68,1.81-21.19,4.59-7.24,3.08-13.71,7.59-19.13,13.15-5.49,5.63-9.89,12.35-12.89,19.73C0,47.32,0,59.21,0,59.21v72.21s0,11.89,4.53,21.74c3,7.38,7.4,14.09,12.89,19.73,5.42,5.56,11.89,10.07,19.13,13.15,6.51,2.77,13.65,4.42,21.19,4.59H210.31c1.1,0,2.1-.45,2.82-1.17h0c.72-.72,1.17-1.72,1.17-2.82v-46.99c0-1.1-.45-2.1-1.17-2.82s-1.72-1.17-2.82-1.17H82.85c-4.04,0-7.31-.48-9.93-1.4-2.53-.89-4.45-2.18-5.85-3.84-1.44-1.69-2.43-3.85-3.07-6.4-.66-2.62-.93-5.67-.93-9.06v-39.27Z"/>
</svg>