<svg width="604" height="183" viewBox="0 0 604 183" fill="none" xmlns="http://www.w3.org/2000/svg">
<path d="M149.559 86.3278V53.7934C149.559 52.2599 148.432 51 146.871 51H41.0469C19.7677 51.0001 1.45022 70.3577 0.999258 91.9693C0.548291 113.581 0.999258 140.881 0.999258 140.881C0.999258 162.606 18.6108 182.333 40.6629 183H198.165C199.631 183 201.048 181.737 200.908 180.207V89.2307C203.857 89.2307 207.615 88.6739 210.18 90.3809C211.606 91.2573 212.484 93.01 212.484 96.1868V180.207C212.484 181.798 213.787 182.864 215.281 183H254.067C255.603 183 256.865 181.74 256.865 180.207V89.2307C259.556 89.2307 262.583 88.9231 265.094 90.1071C266.959 90.9834 268.111 92.9005 268.166 96.8988L268.441 180.207C268.441 181.711 269.741 183 271.238 183H309.201C310.737 183 311.999 181.74 311.999 180.207V84.6735C311.451 63.6166 296.469 51.4154 277.147 51.0548L158.721 51C157.222 51 155.923 52.2784 155.923 53.7934V144.057H58.4374C49.506 144.057 44.7225 141.021 44.7225 131.816V102.184C44.7225 92.9453 49.4939 89.1212 58.4374 89.1212H146.762C148.298 89.1212 149.559 87.8614 149.559 86.3278Z" fill="white"/>
<path fill-rule="evenodd" clip-rule="evenodd" d="M311.999 51.0001H578.633C592.374 51.0001 603.562 39.8756 603.637 26.2127V25.0928C603.637 11.3553 592.374 0.230835 578.633 0.230835H337.003C323.187 0.230835 311.999 11.3553 311.999 25.0928V51.0001ZM578.633 46.8191H316.279V25.0928C316.279 13.7444 325.59 4.48649 337.003 4.48649H578.633C590.046 4.48649 599.357 13.7444 599.357 25.0928V26.2127C599.357 37.5612 590.046 46.8191 578.633 46.8191ZM79.2296 95.4746H60.1384C54.3232 95.4746 51.5802 100.13 51.5254 105.827V130.145C51.5254 135.841 56.2982 138.525 62.1133 138.525H79.2296V95.4746ZM147.585 95.4746H120.484V138.525H147.585V95.4746ZM113.627 95.4746H86.087V138.525H113.627V95.4746Z" fill="#00B7F1"/>
<path d="M345.715 31.8122L343.838 25.7647L341.961 31.8122H338.432L334.377 20.1652H338.507L340.384 26.4367L342.336 20.1652H345.415L347.367 26.362L349.244 20.1652H353.299L349.244 31.8122H345.715Z" fill="white"/>
<path d="M364.713 20.3889C365.464 20.8369 366.065 21.4342 366.515 22.2554C366.966 23.0767 367.116 24.0473 367.116 25.0926V31.7374H363.136V25.6898C363.136 24.8686 362.911 24.2713 362.536 23.8233C362.16 23.3754 361.635 23.226 360.959 23.226C360.584 23.226 360.208 23.3007 359.833 23.5247C359.457 23.7487 359.082 24.0473 358.781 24.4206V31.7374H354.877V14.7147H358.781V20.9116C359.758 20.165 360.809 19.7916 362.01 19.7916C363.136 19.717 363.962 19.941 364.713 20.3889Z" fill="white"/>
<path d="M381.155 27.0338L372.821 27.1085C372.971 27.7058 373.271 28.1537 373.722 28.4524C374.172 28.8257 374.773 28.975 375.449 28.975C375.824 28.975 376.199 28.9003 376.5 28.751C376.8 28.6017 377.025 28.3777 377.251 28.1537H381.08C380.78 29.3483 380.179 30.3189 379.128 30.9908C378.077 31.6628 376.875 32.0361 375.374 32.0361C374.097 32.0361 372.971 31.8121 371.995 31.2895C371.018 30.7668 370.268 30.0202 369.742 29.1243C369.216 28.2284 368.916 27.1085 368.916 25.9886C368.916 24.794 369.141 23.7487 369.667 22.8528C370.193 21.9569 370.943 21.2103 371.844 20.6876C372.821 20.165 373.872 19.941 375.148 19.941C376.275 19.941 377.326 20.165 378.227 20.6876C379.128 21.2103 379.879 21.8822 380.404 22.7781C380.93 23.6741 381.155 24.6447 381.155 25.8392C381.23 26.2872 381.23 26.7352 381.155 27.0338ZM373.571 23.3754C373.121 23.7487 372.821 24.1967 372.745 24.794H377.551C377.401 24.1967 377.176 23.6741 376.8 23.3754C376.425 23.0021 375.899 22.8528 375.223 22.8528C374.548 22.8528 374.022 23.0021 373.571 23.3754Z" fill="white"/>
<path d="M388.736 24.0474C388.06 24.2714 387.535 24.6447 387.084 25.0926V31.7374H383.18V20.0904H387.084V21.3596C388.21 20.389 389.562 19.941 391.139 19.941V23.6741C390.163 23.6741 389.412 23.8234 388.736 24.0474Z" fill="white"/>
<path d="M404.357 27.0338L396.023 27.1085C396.173 27.7058 396.473 28.1537 396.924 28.4524C397.374 28.8257 397.975 28.975 398.651 28.975C399.026 28.975 399.402 28.9003 399.702 28.751C400.002 28.6017 400.228 28.3777 400.453 28.1537H404.357C404.057 29.3483 403.456 30.3189 402.405 30.9908C401.354 31.6628 400.153 32.0361 398.651 32.0361C397.374 32.0361 396.248 31.8121 395.272 31.2895C394.296 30.7668 393.545 30.0202 393.019 29.1243C392.494 28.2284 392.193 27.1085 392.193 25.9886C392.193 24.794 392.419 23.7487 392.944 22.8528C393.47 21.9569 394.221 21.2103 395.122 20.6876C396.098 20.165 397.149 19.941 398.426 19.941C399.552 19.941 400.603 20.165 401.504 20.6876C402.405 21.2103 403.156 21.8822 403.682 22.7781C404.207 23.6741 404.432 24.6447 404.432 25.8392C404.432 26.2872 404.432 26.7352 404.357 27.0338ZM396.849 23.3754C396.398 23.7487 396.098 24.1967 396.023 24.794H400.828C400.678 24.1967 400.453 23.6741 400.077 23.3754C399.702 23.0021 399.176 22.8528 398.501 22.8528C397.825 22.8528 397.224 23.0021 396.849 23.3754Z" fill="white"/>
<path d="M429.962 20.3893C430.713 20.8373 431.313 21.4346 431.689 22.2558C432.139 23.0771 432.289 24.0477 432.289 25.0929V31.7377H428.385V25.6902C428.385 24.8689 428.235 24.2717 427.859 23.8237C427.484 23.4504 426.958 23.2264 426.282 23.2264C425.607 23.2264 425.006 23.5251 424.48 24.197C424.48 24.5703 424.555 24.8689 424.555 25.0929V31.7377H420.651V25.6902C420.651 24.8689 420.501 24.2717 420.125 23.8237C419.75 23.4504 419.224 23.2264 418.548 23.2264C417.873 23.2264 417.347 23.5997 416.746 24.2717V31.7377H412.842V20.0907H416.746V20.7626C417.197 20.3893 417.572 20.1653 418.023 19.9413C418.473 19.792 418.999 19.6427 419.675 19.6427C420.426 19.6427 421.101 19.792 421.702 20.016C422.303 20.3146 422.828 20.6879 423.279 21.2106C423.88 20.6879 424.555 20.24 425.156 20.016C425.832 19.792 426.583 19.6427 427.409 19.6427C428.385 19.7174 429.211 19.9413 429.962 20.3893Z" fill="white"/>
<path d="M443.331 31.8121V31.1402C442.43 31.7375 441.303 32.0361 440.102 32.0361C439.051 32.0361 438.075 31.7375 437.174 31.2148C436.273 30.6922 435.597 29.9456 435.071 28.975C434.546 28.0791 434.32 27.0338 434.32 25.9139C434.32 24.794 434.546 23.7488 435.071 22.7782C435.597 21.8822 436.273 21.1356 437.174 20.613C438.075 20.0904 439.051 19.7917 440.102 19.7917C441.303 19.7917 442.355 20.0904 443.331 20.6877V20.0904H447.235V31.7375H443.331V31.8121ZM443.331 27.7804V24.1221C442.73 23.3755 441.904 23.0022 440.853 23.0022C440.027 23.0022 439.426 23.3008 438.901 23.8234C438.375 24.4207 438.15 25.0927 438.15 25.9139C438.15 26.7352 438.375 27.4071 438.901 28.0044C439.426 28.527 440.102 28.8257 440.853 28.8257C441.829 28.8257 442.655 28.4524 443.331 27.7804Z" fill="white"/>
<path d="M461.576 34.7238C461.051 35.6198 460.3 36.2917 459.324 36.7397C458.347 37.1876 457.296 37.4116 456.02 37.4116C454.818 37.4116 453.767 37.1876 452.866 36.8143C451.965 36.3664 451.214 35.7691 450.614 35.0225C450.088 34.2759 449.712 33.3799 449.712 32.4093H453.617C453.692 33.0066 453.992 33.3799 454.368 33.6786C454.818 33.9772 455.344 34.1265 456.095 34.1265C456.771 34.1265 457.371 33.9026 457.822 33.5293C458.272 33.0813 458.498 32.484 458.498 31.7374V30.6175C457.597 31.1401 456.47 31.4388 455.269 31.4388C454.218 31.4388 453.242 31.2148 452.34 30.6922C451.439 30.1695 450.764 29.4976 450.238 28.6017C449.712 27.7057 449.412 26.8098 449.412 25.7646C449.412 24.6446 449.637 23.5994 450.163 22.6288C450.689 21.7329 451.364 20.9863 452.265 20.4636C453.166 19.941 454.143 19.717 455.194 19.717C456.395 19.717 457.446 20.0157 458.423 20.613V20.165H462.327V31.5881C462.402 32.7827 462.102 33.8279 461.576 34.7238ZM458.498 27.1831V23.9727C457.822 23.2261 457.071 22.8528 456.095 22.8528C455.269 22.8528 454.593 23.0768 454.143 23.5994C453.617 24.122 453.392 24.794 453.392 25.6152C453.392 26.0632 453.542 26.4365 453.767 26.8845C453.992 27.2578 454.368 27.6311 454.743 27.8551C455.194 28.079 455.644 28.2284 456.17 28.2284C456.996 28.303 457.822 27.9297 458.498 27.1831Z" fill="white"/>
<path d="M465.479 17.6267C465.028 17.1787 464.803 16.6561 464.803 16.0588C464.803 15.4615 465.028 14.9389 465.479 14.4909C465.929 14.043 466.455 13.819 467.13 13.819C467.731 13.819 468.332 14.043 468.782 14.4909C469.233 14.9389 469.458 15.4615 469.458 16.0588C469.458 16.6561 469.233 17.1787 468.782 17.6267C468.332 18.0746 467.806 18.2239 467.13 18.2239C466.455 18.2986 465.929 18.0746 465.479 17.6267ZM465.178 31.8122V20.0905H469.083V31.7375H465.178V31.8122Z" fill="white"/>
<path d="M479.145 28.3032C479.595 28.0046 479.821 27.5566 479.896 27.034H483.575C483.5 28.0046 483.199 28.9005 482.674 29.6471C482.148 30.3937 481.397 30.991 480.496 31.4389C479.595 31.8869 478.619 32.1109 477.568 32.1109C476.367 32.1109 475.24 31.8869 474.264 31.3643C473.288 30.8417 472.537 30.0951 472.012 29.1991C471.486 28.3032 471.186 27.1833 471.186 26.0634C471.186 24.9435 471.486 23.8982 472.012 22.9276C472.537 22.0317 473.363 21.2851 474.264 20.7625C475.24 20.2399 476.367 20.0159 477.568 20.0159C478.619 20.0159 479.595 20.2399 480.496 20.6878C481.397 21.1358 482.073 21.7331 482.674 22.4797C483.199 23.2263 483.5 24.1222 483.575 25.0928H479.896C479.821 24.5702 479.52 24.1222 479.145 23.8236C478.694 23.5249 478.244 23.3756 477.643 23.3756C476.817 23.3756 476.141 23.5996 475.691 24.1222C475.24 24.6448 474.94 25.3168 474.94 26.138C474.94 26.9593 475.165 27.6313 475.691 28.1539C476.141 28.6765 476.817 28.9751 477.643 28.9751C478.244 28.7512 478.769 28.6018 479.145 28.3032Z" fill="white"/>
<path d="M492.438 17.6267C491.987 17.1787 491.762 16.6561 491.762 16.0588C491.762 15.4615 491.987 14.9389 492.438 14.4909C492.888 14.043 493.414 13.819 494.089 13.819C494.69 13.819 495.291 14.043 495.741 14.4909C496.192 14.9389 496.417 15.4615 496.417 16.0588C496.417 16.6561 496.192 17.1787 495.741 17.6267C495.291 18.0746 494.765 18.2239 494.089 18.2239C493.414 18.2986 492.888 18.0746 492.438 17.6267ZM492.137 31.8122V20.0905H496.042V31.7375H492.137V31.8122Z" fill="white"/>
<path d="M502.193 28.9003C502.569 29.1243 503.094 29.2736 503.695 29.2736C504.221 29.2736 504.596 29.1989 504.896 29.0496C505.197 28.9003 505.347 28.6763 505.347 28.4523C505.347 28.2283 505.272 28.079 505.046 27.9297C504.821 27.7804 504.596 27.7057 504.221 27.631L501.818 27.2577C500.767 27.1084 499.941 26.7351 499.265 26.1378C498.664 25.5405 498.364 24.7939 498.364 23.7487C498.364 22.5541 498.814 21.5835 499.79 20.9116C500.767 20.2396 502.043 19.8663 503.62 19.8663C505.046 19.8663 506.323 20.165 507.374 20.8369C508.425 21.5089 509.026 22.4795 509.101 23.898H505.722C505.722 23.45 505.497 23.1514 505.122 22.9274C504.746 22.7034 504.296 22.6288 503.695 22.6288C503.244 22.6288 502.869 22.7034 502.569 22.8528C502.343 23.0021 502.193 23.2261 502.193 23.45C502.193 23.898 502.569 24.1966 503.395 24.346L505.572 24.7193C507.975 25.1672 509.251 26.3618 509.251 28.2283C509.251 29.4976 508.726 30.4681 507.75 31.1401C506.698 31.812 505.422 32.1853 503.77 32.1853C502.118 32.1853 500.767 31.812 499.715 31.0654C498.664 30.3188 498.063 29.2736 497.988 27.7804H501.442C501.517 28.303 501.818 28.6763 502.193 28.9003Z" fill="white"/>
<path d="M534.785 20.3893C535.536 20.8373 536.136 21.4346 536.512 22.2558C536.962 23.0771 537.112 24.0477 537.112 25.0929V31.7377H533.133V25.6902C533.133 24.8689 532.983 24.2717 532.607 23.8237C532.232 23.4504 531.706 23.2264 531.03 23.2264C530.355 23.2264 529.754 23.5251 529.228 24.197C529.228 24.5703 529.303 24.8689 529.303 25.0929V31.7377H525.399V25.6902C525.399 24.8689 525.249 24.2717 524.873 23.8237C524.498 23.4504 523.972 23.2264 523.296 23.2264C522.621 23.2264 522.095 23.5997 521.494 24.2717V31.7377H517.59V20.0907H521.494V20.7626C521.945 20.3893 522.32 20.1653 522.771 19.9413C523.221 19.792 523.747 19.6427 524.423 19.6427C525.174 19.6427 525.849 19.792 526.45 20.016C527.051 20.3146 527.576 20.6879 528.027 21.2106C528.628 20.6879 529.303 20.24 529.904 20.016C530.58 19.792 531.331 19.6427 532.157 19.6427C533.208 19.7174 534.034 19.9413 534.785 20.3893Z" fill="white"/>
<path d="M548.075 31.8121V31.1402C547.174 31.7375 546.048 32.0361 544.846 32.0361C543.795 32.0361 542.819 31.7375 541.918 31.2148C541.017 30.6922 540.341 29.9456 539.815 28.975C539.29 28.0791 539.064 27.0338 539.064 25.9139C539.064 24.794 539.29 23.7488 539.815 22.7782C540.341 21.8822 541.017 21.1356 541.918 20.613C542.819 20.0904 543.795 19.7917 544.846 19.7917C546.048 19.7917 547.099 20.0904 548.075 20.6877V20.0904H551.979V31.7375H548.075V31.8121ZM548.075 27.7804V24.1221C547.474 23.3755 546.648 23.0022 545.597 23.0022C544.771 23.0022 544.17 23.3008 543.645 23.8234C543.119 24.4207 542.894 25.0927 542.894 25.9139C542.894 26.7352 543.119 27.4071 543.645 28.0044C544.17 28.527 544.846 28.8257 545.597 28.8257C546.648 28.8257 547.474 28.4524 548.075 27.7804Z" fill="white"/>
<path d="M563.016 31.8123V31.215C562.115 31.8123 560.989 32.111 559.788 32.111C558.736 32.111 557.76 31.8123 556.859 31.2897C555.958 30.7671 555.282 30.0205 554.757 29.0499C554.231 28.154 554.006 27.1087 554.006 25.9141C554.006 24.7942 554.231 23.749 554.757 22.853C555.282 21.9571 555.958 21.2105 556.859 20.6879C557.76 20.1653 558.736 19.8666 559.788 19.8666C560.989 19.8666 562.04 20.1653 563.016 20.7626V14.6404H566.921V31.7377H563.016V31.8123ZM563.016 27.7807V24.1969C562.416 23.4503 561.59 23.077 560.538 23.077C559.712 23.077 559.112 23.3757 558.586 23.8983C558.061 24.4956 557.835 25.1675 557.835 25.9141C557.835 26.7354 558.061 27.4073 558.586 28.0046C559.112 28.6019 559.788 28.8259 560.538 28.8259C561.59 28.9006 562.416 28.5273 563.016 27.7807Z" fill="white"/>
<path d="M581.188 27.0338L572.853 27.1085C573.003 27.7058 573.303 28.1537 573.754 28.4524C574.204 28.8257 574.805 28.975 575.481 28.975C575.856 28.975 576.232 28.9003 576.532 28.751C576.832 28.6017 577.058 28.3777 577.283 28.1537H581.188C580.887 29.3483 580.286 30.3189 579.235 30.9908C578.184 31.6628 576.983 32.0361 575.481 32.0361C574.204 32.0361 573.078 31.8121 572.102 31.2895C571.126 30.7668 570.375 30.0202 569.849 29.1243C569.324 28.2284 569.023 27.1085 569.023 25.9886C569.023 24.794 569.249 23.7487 569.774 22.8528C570.3 21.9569 571.051 21.2103 571.952 20.6876C572.928 20.165 573.979 19.941 575.256 19.941C576.382 19.941 577.433 20.165 578.334 20.6876C579.235 21.2103 579.986 21.8822 580.512 22.7781C581.037 23.6741 581.263 24.6447 581.263 25.8392C581.263 26.2872 581.263 26.7352 581.188 27.0338ZM573.679 23.3754C573.228 23.7487 572.928 24.1967 572.853 24.794H577.658C577.508 24.1967 577.283 23.6741 576.908 23.3754C576.532 23.0021 576.007 22.8528 575.331 22.8528C574.655 22.8528 574.054 23.0021 573.679 23.3754Z" fill="white"/>
</svg>
