<?xml version="1.0" encoding="UTF-8"?>
<svg xmlns="http://www.w3.org/2000/svg" width="20cm" height="11.33cm" viewBox="0 0 566.93 321.08">
  <defs>
    <style>
      .c {
        fill: #7cc242;
      }
    </style>
  </defs>
  <g id="a" data-name="Layer 1">
    <path d="M562.26,39.53c-2.98-7.32-7.41-14.11-13.3-19.93-6.2-6.13-13.99-11.17-23.38-14.59-8.23-3-17.68-4.76-28.35-4.93L287.47,.02c-1.39,0-2.65,.56-3.56,1.47-.91,.91-1.47,2.17-1.47,3.56h0V169.68H104.75c-5.11,0-9.24-.61-12.55-1.77-3.2-1.12-5.62-2.76-7.4-4.85-1.82-2.14-3.08-4.86-3.88-8.09-.83-3.32-1.18-7.17-1.18-11.46v-47.83c0-4.29,.35-8.14,1.18-11.46,.81-3.23,2.06-5.95,3.88-8.09,1.78-2.09,4.2-3.73,7.4-4.85,3.31-1.16,7.44-1.77,12.55-1.77h161.14c1.39,0,2.66-.57,3.57-1.48,.91-.91,1.48-2.18,1.48-3.57V5.05c0-1.39-.57-2.66-1.48-3.57h0c-.91-.91-2.18-1.48-3.57-1.48H73c-9.53,.22-18.56,2.29-26.79,5.8-9.15,3.89-17.34,9.6-24.18,16.63-6.94,7.12-12.5,15.61-16.3,24.94C0,59.83,0,74.86,0,74.86v89.26c0,10.03,1.95,19.75,5.5,28.72,3.66,9.22,9.01,17.64,15.7,24.76,6.61,7.04,14.54,12.82,23.42,16.87,8.48,3.87,17.83,6.23,27.74,6.54,.73,0,214.99,0,214.99,0h72.28c1.38-.01,2.64-.58,3.56-1.49h0c1.54-1.55,1.49-3.56,1.49-3.56V69.98s11.78-1.27,16.94,1.92c2.6,1.61,4.16,4.84,4.18,10.63,.03,7.26,.02,49.07,.01,91.7h0v.61h0v4.12c0,34.82-.02,44.3-.02,57,0,1.38,.56,2.64,1.48,3.56h0c1.61,1.61,3.56,1.5,3.56,1.5h70.66c1.39,0,2.66-.57,3.57-1.48,.91-.91,1.48-2.18,1.48-3.57V69.99s11.09-.47,15.09,1.46c3.36,1.62,5.48,5.16,5.57,12.42h0v.02l.46,152.06h0c0,1.38,.56,2.64,1.48,3.56h0c1.49,1.5,3.56,1.5,3.56,1.5h69.18c1.39,0,2.66-.57,3.57-1.48,.91-.91,1.48-2.18,1.48-3.57V61.9s0-12.13-4.67-22.37Z"/>
    <g>
      <rect class="c" x="217.85" y="80.33" width="49.39" height="78.65"/>
      <path class="c" d="M92.26,99.27v44.4c0,10.42,8.68,15.3,19.28,15.3h31.18V80.33h-34.82c-10.6,0-15.64,8.52-15.64,18.94Z"/>
      <rect class="c" x="155.17" y="80.33" width="50.24" height="78.65"/>
    </g>
  </g>
  <g id="b" data-name="Layer 2">
    <g>
      <path d="M128.77,311.12v9.12h-43.93v-58.57h42.76v9.12h-31.88v15.23h28.28v8.95h-28.28v16.15h33.05Z"/>
      <path d="M136.71,261.67h10.88v49.37h30.62v9.2h-41.5v-58.57Z"/>
      <path d="M226.58,311.12v9.12h-43.93v-58.57h42.76v9.12h-31.88v15.23h28.28v8.95h-28.28v16.15h33.05Z"/>
      <path d="M288.33,320.24l-.08-38.82-19.24,32.13h-4.85l-19.24-31.63v38.32h-10.38v-58.57h8.95l23.26,38.82,22.84-38.82h8.95l.08,58.57h-10.29Z"/>
      <path d="M354.18,311.12v9.12h-43.93v-58.57h42.76v9.12h-31.88v15.23h28.28v8.95h-28.28v16.15h33.05Z"/>
      <path d="M414.17,261.67v58.57h-8.95l-32.3-39.66v39.66h-10.79v-58.57h8.95l32.3,39.66v-39.66h10.79Z"/>
      <path d="M437.6,270.88h-19.41v-9.2h49.7v9.2h-19.41v49.37h-10.88v-49.37Z"/>
      <path d="M476.38,319.16c-4.21-1.28-7.54-2.98-10-5.1l3.77-8.45c2.4,1.9,5.34,3.44,8.83,4.64,3.49,1.2,6.99,1.8,10.5,1.8,4.35,0,7.6-.7,9.75-2.09,2.15-1.39,3.22-3.23,3.22-5.52,0-1.67-.6-3.05-1.8-4.14-1.2-1.09-2.72-1.94-4.56-2.55-1.84-.61-4.35-1.31-7.53-2.09-4.46-1.06-8.07-2.12-10.84-3.18-2.76-1.06-5.13-2.72-7.11-4.98-1.98-2.26-2.97-5.31-2.97-9.16,0-3.23,.88-6.18,2.64-8.83,1.76-2.65,4.41-4.76,7.95-6.32,3.54-1.56,7.88-2.34,13.01-2.34,3.57,0,7.08,.45,10.54,1.34,3.46,.89,6.44,2.18,8.95,3.85l-3.43,8.45c-2.57-1.51-5.24-2.65-8.03-3.43-2.79-.78-5.49-1.17-8.12-1.17-4.3,0-7.49,.73-9.58,2.18-2.09,1.45-3.14,3.38-3.14,5.77,0,1.67,.6,3.04,1.8,4.1,1.2,1.06,2.72,1.9,4.56,2.51s4.35,1.31,7.53,2.09c4.35,1,7.92,2.05,10.71,3.14,2.79,1.09,5.17,2.75,7.15,4.98,1.98,2.23,2.97,5.24,2.97,9.04,0,3.24-.88,6.16-2.64,8.79-1.76,2.62-4.42,4.71-7.99,6.28-3.57,1.56-7.92,2.34-13.05,2.34-4.52,0-8.88-.64-13.09-1.92Z"/>
    </g>
  </g>
</svg>